<svg id="visual" viewBox="0 0 900 600" width="900" height="600" xmlns="http://www.w3.org/2000/svg" xmlns:xlink="http://www.w3.org/1999/xlink" version="1.1"><rect x="0" y="0" width="900" height="600" fill="#032845"></rect><path d="M0 409L13.7 418.2C27.3 427.3 54.7 445.7 82 442.7C109.3 439.7 136.7 415.3 163.8 416C191 416.7 218 442.3 245.2 450.2C272.3 458 299.7 448 327 451.8C354.3 455.7 381.7 473.3 409 484.2C436.3 495 463.7 499 491 489.5C518.3 480 545.7 457 573 457.7C600.3 458.3 627.7 482.7 654.8 494.2C682 505.7 709 504.3 736.2 487.8C763.3 471.3 790.7 439.7 818 422.3C845.3 405 872.7 402 886.3 400.5L900 399L900 601L886.3 601C872.7 601 845.3 601 818 601C790.7 601 763.3 601 736.2 601C709 601 682 601 654.8 601C627.7 601 600.3 601 573 601C545.7 601 518.3 601 491 601C463.7 601 436.3 601 409 601C381.7 601 354.3 601 327 601C299.7 601 272.3 601 245.2 601C218 601 191 601 163.8 601C136.7 601 109.3 601 82 601C54.7 601 27.3 601 13.7 601L0 601Z" fill="#0091a4"></path><path d="M0 518L13.7 515.7C27.3 513.3 54.7 508.7 82 503.7C109.3 498.7 136.7 493.3 163.8 487C191 480.7 218 473.3 245.2 478.2C272.3 483 299.7 500 327 511.5C354.3 523 381.7 529 409 517.2C436.3 505.3 463.7 475.7 491 467.5C518.3 459.3 545.7 472.7 573 480.5C600.3 488.3 627.7 490.7 654.8 496.2C682 501.7 709 510.3 736.2 512.3C763.3 514.3 790.7 509.7 818 506C845.3 502.3 872.7 499.7 886.3 498.3L900 497L900 601L886.3 601C872.7 601 845.3 601 818 601C790.7 601 763.3 601 736.2 601C709 601 682 601 654.8 601C627.7 601 600.3 601 573 601C545.7 601 518.3 601 491 601C463.7 601 436.3 601 409 601C381.7 601 354.3 601 327 601C299.7 601 272.3 601 245.2 601C218 601 191 601 163.8 601C136.7 601 109.3 601 82 601C54.7 601 27.3 601 13.7 601L0 601Z" fill="#00c8a2"></path><path d="M0 535L13.7 536.5C27.3 538 54.7 541 82 546.5C109.3 552 136.7 560 163.8 565.5C191 571 218 574 245.2 563.3C272.3 552.7 299.7 528.3 327 523.8C354.3 519.3 381.7 534.7 409 536.2C436.3 537.7 463.7 525.3 491 521.2C518.3 517 545.7 521 573 532C600.3 543 627.7 561 654.8 568.7C682 576.3 709 573.7 736.2 573.3C763.3 573 790.7 575 818 570.5C845.3 566 872.7 555 886.3 549.5L900 544L900 601L886.3 601C872.7 601 845.3 601 818 601C790.7 601 763.3 601 736.2 601C709 601 682 601 654.8 601C627.7 601 600.3 601 573 601C545.7 601 518.3 601 491 601C463.7 601 436.3 601 409 601C381.7 601 354.3 601 327 601C299.7 601 272.3 601 245.2 601C218 601 191 601 163.8 601C136.7 601 109.3 601 82 601C54.7 601 27.3 601 13.7 601L0 601Z" fill="#0bf32c"></path></svg>